M48
; DRILL file {KiCad 9.0.1} date 2025-04-06T15:49:48+0530
; FORMAT={-:-/ absolute / metric / decimal}
; #@! TF.CreationDate,2025-04-06T15:49:48+05:30
; #@! TF.GenerationSoftware,Kicad,Pcbnew,9.0.1
; #@! TF.FileFunction,Plated,1,2,PTH
FMAT,2
METRIC
; #@! TA.AperFunction,Plated,PTH,ViaDrill
T1C0.300
; #@! TA.AperFunction,Plated,PTH,ComponentDrill
T2C0.813
; #@! TA.AperFunction,Plated,PTH,ComponentDrill
T3C0.830
; #@! TA.AperFunction,Plated,PTH,ComponentDrill
T4C0.981
; #@! TA.AperFunction,Plated,PTH,ComponentDrill
T5C1.016
; #@! TA.AperFunction,Plated,PTH,ComponentDrill
T6C1.118
%
G90
G05
T1
X182.325Y-97.249
T2
X181.5Y-110.5
X182.77Y-108.595
X184.04Y-110.5
X188.5Y-110.5
X189.77Y-108.595
X191.04Y-110.5
X208.199Y-108.468
X209.469Y-106.563
X210.739Y-108.468
X215.969Y-108.749
X217.239Y-106.844
X218.509Y-108.749
T3
X151.92Y-111.0
X162.08Y-111.0
X168.0Y-104.84
X168.0Y-115.0
X172.0Y-104.92
X172.0Y-115.08
X176.5Y-104.84
X176.5Y-115.0
T4
X154.96Y-104.0
X157.5Y-104.0
X181.23Y-100.0
X183.77Y-100.0
X212.199Y-97.249
X214.739Y-97.249
T5
X133.479Y-117.498
X133.479Y-124.0
X138.0Y-117.498
X138.0Y-124.0
X155.0Y-117.498
X155.0Y-124.0
X159.521Y-117.498
X159.521Y-124.0
X182.239Y-117.249
X182.239Y-123.751
X186.761Y-117.249
X186.761Y-123.751
X191.5Y-117.498
X191.5Y-124.0
X196.021Y-117.498
X196.021Y-124.0
X206.979Y-117.048
X206.979Y-123.55
X211.5Y-117.048
X211.5Y-123.55
X215.479Y-116.998
X215.479Y-123.5
X220.0Y-116.998
X220.0Y-123.5
T6
X134.96Y-110.0
X140.04Y-110.0
M30
