%TF.GenerationSoftware,KiCad,Pcbnew,9.0.1*%
%TF.CreationDate,2025-04-06T15:48:51+05:30*%
%TF.ProjectId,_autosave-solder,5f617574-6f73-4617-9665-2d736f6c6465,rev?*%
%TF.SameCoordinates,Original*%
%TF.FileFunction,Copper,L1,Top*%
%TF.FilePolarity,Positive*%
%FSLAX46Y46*%
G04 Gerber Fmt 4.6, Leading zero omitted, Abs format (unit mm)*
G04 Created by KiCad (PCBNEW 9.0.1) date 2025-04-06 15:48:51*
%MOMM*%
%LPD*%
G01*
G04 APERTURE LIST*
G04 Aperture macros list*
%AMOutline5P*
0 Free polygon, 5 corners , with rotation*
0 The origin of the aperture is its center*
0 number of corners: always 5*
0 $1 to $10 corner X, Y*
0 $11 Rotation angle, in degrees counterclockwise*
0 create outline with 5 corners*
4,1,5,$1,$2,$3,$4,$5,$6,$7,$8,$9,$10,$1,$2,$11*%
%AMOutline6P*
0 Free polygon, 6 corners , with rotation*
0 The origin of the aperture is its center*
0 number of corners: always 6*
0 $1 to $12 corner X, Y*
0 $13 Rotation angle, in degrees counterclockwise*
0 create outline with 6 corners*
4,1,6,$1,$2,$3,$4,$5,$6,$7,$8,$9,$10,$11,$12,$1,$2,$13*%
%AMOutline7P*
0 Free polygon, 7 corners , with rotation*
0 The origin of the aperture is its center*
0 number of corners: always 7*
0 $1 to $14 corner X, Y*
0 $15 Rotation angle, in degrees counterclockwise*
0 create outline with 7 corners*
4,1,7,$1,$2,$3,$4,$5,$6,$7,$8,$9,$10,$11,$12,$13,$14,$1,$2,$15*%
%AMOutline8P*
0 Free polygon, 8 corners , with rotation*
0 The origin of the aperture is its center*
0 number of corners: always 8*
0 $1 to $16 corner X, Y*
0 $17 Rotation angle, in degrees counterclockwise*
0 create outline with 8 corners*
4,1,8,$1,$2,$3,$4,$5,$6,$7,$8,$9,$10,$11,$12,$13,$14,$15,$16,$1,$2,$17*%
G04 Aperture macros list end*
%TA.AperFunction,ComponentPad*%
%ADD10C,1.879600*%
%TD*%
%TA.AperFunction,ComponentPad*%
%ADD11C,1.430000*%
%TD*%
%TA.AperFunction,ComponentPad*%
%ADD12Outline8P,-0.660400X0.273547X-0.273547X0.660400X0.273547X0.660400X0.660400X0.273547X0.660400X-0.273547X0.273547X-0.660400X-0.273547X-0.660400X-0.660400X-0.273547X0.000000*%
%TD*%
%TA.AperFunction,ComponentPad*%
%ADD13C,1.581000*%
%TD*%
%TA.AperFunction,ComponentPad*%
%ADD14Outline8P,-1.574800X0.652304X-0.652304X1.574800X0.652304X1.574800X1.574800X0.652304X1.574800X-0.652304X0.652304X-1.574800X-0.652304X-1.574800X-1.574800X-0.652304X180.000000*%
%TD*%
%TA.AperFunction,ViaPad*%
%ADD15C,0.600000*%
%TD*%
%TA.AperFunction,Conductor*%
%ADD16C,0.200000*%
%TD*%
G04 APERTURE END LIST*
D10*
%TO.P,S1,1*%
%TO.N,N/C*%
X155000000Y-124000000D03*
%TO.P,S1,2*%
%TO.N,BAT1-*%
X155000000Y-117497600D03*
%TO.P,S1,3*%
%TO.N,N/C*%
X159521200Y-124000000D03*
%TO.P,S1,4*%
%TO.N,S1_4*%
X159521200Y-117497600D03*
%TD*%
%TO.P,S6,1*%
%TO.N,N/C*%
X182239400Y-123751200D03*
%TO.P,S6,2*%
%TO.N,BAT1+*%
X182239400Y-117248800D03*
%TO.P,S6,3*%
%TO.N,N/C*%
X186760600Y-123751200D03*
%TO.P,S6,4*%
%TO.N,S6_4*%
X186760600Y-117248800D03*
%TD*%
D11*
%TO.P,R3,1*%
%TO.N,BAT1-*%
X176500000Y-115000000D03*
%TO.P,R3,2*%
%TO.N,D3_C*%
X176500000Y-104840000D03*
%TD*%
D12*
%TO.P,T4,1*%
%TO.N,BAT1+*%
X188500000Y-110500000D03*
%TO.P,T4,2*%
%TO.N,T4_B*%
X189770000Y-108595000D03*
%TO.P,T4,3*%
%TO.N,D3_A*%
X191040000Y-110500000D03*
%TD*%
D13*
%TO.P,D2,1*%
%TO.N,D2_A*%
X214739400Y-97248800D03*
%TO.P,D2,2*%
%TO.N,BAT1-*%
X212199400Y-97248800D03*
%TD*%
D11*
%TO.P,R1,1*%
%TO.N,S1_4*%
X151920000Y-111000000D03*
%TO.P,R1,2*%
%TO.N,D1_C*%
X162080000Y-111000000D03*
%TD*%
D12*
%TO.P,T3,1*%
%TO.N,BAT1+*%
X181500000Y-110500000D03*
%TO.P,T3,2*%
%TO.N,T3_B*%
X182770000Y-108595000D03*
%TO.P,T3,3*%
%TO.N,D3_A*%
X184040000Y-110500000D03*
%TD*%
D13*
%TO.P,D3,1*%
%TO.N,D3_A*%
X183770000Y-100000000D03*
%TO.P,D3,2*%
%TO.N,D3_C*%
X181230000Y-100000000D03*
%TD*%
D14*
%TO.P,M1,+*%
%TO.N,BAT1+*%
X134960000Y-110000000D03*
%TO.P,M1,-*%
%TO.N,M1_-*%
X140040000Y-110000000D03*
%TD*%
D11*
%TO.P,R5,1*%
%TO.N,S6_4*%
X172000000Y-115080000D03*
%TO.P,R5,2*%
%TO.N,T3_B*%
X172000000Y-104920000D03*
%TD*%
D10*
%TO.P,S7,1*%
%TO.N,N/C*%
X191500000Y-124000000D03*
%TO.P,S7,2*%
%TO.N,BAT1+*%
X191500000Y-117497600D03*
%TO.P,S7,3*%
%TO.N,N/C*%
X196021200Y-124000000D03*
%TO.P,S7,4*%
%TO.N,S7_4*%
X196021200Y-117497600D03*
%TD*%
D12*
%TO.P,T2,1*%
%TO.N,S4_4*%
X215969400Y-108748800D03*
%TO.P,T2,2*%
%TO.N,T1_E*%
X217239400Y-106843800D03*
%TO.P,T2,3*%
%TO.N,D2_A*%
X218509400Y-108748800D03*
%TD*%
D10*
%TO.P,S3,1*%
%TO.N,N/C*%
X206978800Y-123550400D03*
%TO.P,S3,2*%
%TO.N,BAT1+*%
X206978800Y-117048000D03*
%TO.P,S3,3*%
%TO.N,N/C*%
X211500000Y-123550400D03*
%TO.P,S3,4*%
%TO.N,S3_4*%
X211500000Y-117048000D03*
%TD*%
D12*
%TO.P,T1,1*%
%TO.N,BAT1+*%
X208199400Y-108467600D03*
%TO.P,T1,2*%
%TO.N,S3_4*%
X209469400Y-106562600D03*
%TO.P,T1,3*%
%TO.N,T1_E*%
X210739400Y-108467600D03*
%TD*%
D11*
%TO.P,R4,1*%
%TO.N,S7_4*%
X168000000Y-115000000D03*
%TO.P,R4,2*%
%TO.N,T4_B*%
X168000000Y-104840000D03*
%TD*%
D10*
%TO.P,S4,1*%
%TO.N,N/C*%
X215478800Y-123500000D03*
%TO.P,S4,2*%
%TO.N,BAT1+*%
X215478800Y-116997600D03*
%TO.P,S4,3*%
%TO.N,N/C*%
X220000000Y-123500000D03*
%TO.P,S4,4*%
%TO.N,S4_4*%
X220000000Y-116997600D03*
%TD*%
%TO.P,S2,1*%
%TO.N,N/C*%
X133478800Y-124000000D03*
%TO.P,S2,2*%
%TO.N,BAT1-*%
X133478800Y-117497600D03*
%TO.P,S2,3*%
%TO.N,N/C*%
X138000000Y-124000000D03*
%TO.P,S2,4*%
%TO.N,M1_-*%
X138000000Y-117497600D03*
%TD*%
D13*
%TO.P,D1,1*%
%TO.N,BAT1+*%
X154960000Y-104000000D03*
%TO.P,D1,2*%
%TO.N,D1_C*%
X157500000Y-104000000D03*
%TD*%
D15*
%TO.N,BAT1-*%
X182324700Y-97248800D03*
%TD*%
D16*
%TO.N,S6_4*%
X183090100Y-113578300D02*
X186760600Y-117248800D01*
X173501700Y-113578300D02*
X183090100Y-113578300D01*
X172000000Y-115080000D02*
X173501700Y-113578300D01*
%TO.N,T3_B*%
X175675000Y-108595000D02*
X172000000Y-104920000D01*
X182770000Y-108595000D02*
X175675000Y-108595000D01*
%TO.N,S7_4*%
X169823400Y-113176600D02*
X168000000Y-115000000D01*
X191700200Y-113176600D02*
X169823400Y-113176600D01*
X196021200Y-117497600D02*
X191700200Y-113176600D01*
%TO.N,T4_B*%
X172389800Y-109229800D02*
X168000000Y-104840000D01*
X181689400Y-109229800D02*
X172389800Y-109229800D01*
X182025000Y-109565400D02*
X181689400Y-109229800D01*
X183242600Y-109565400D02*
X182025000Y-109565400D01*
X184213000Y-108595000D02*
X183242600Y-109565400D01*
X189770000Y-108595000D02*
X184213000Y-108595000D01*
%TO.N,D3_A*%
X184040000Y-110500000D02*
X184498000Y-110500000D01*
X184498000Y-110500000D02*
X184956000Y-110500000D01*
X189099300Y-109522700D02*
X190076600Y-110500000D01*
X185475300Y-109522700D02*
X189099300Y-109522700D01*
X184498000Y-110500000D02*
X185475300Y-109522700D01*
X191040000Y-110500000D02*
X190076600Y-110500000D01*
%TO.N,T1_E*%
X213326600Y-106843800D02*
X217239400Y-106843800D01*
X211702800Y-108467600D02*
X213326600Y-106843800D01*
X210739400Y-108467600D02*
X211702800Y-108467600D01*
%TO.N,BAT1+*%
X134960000Y-110000000D02*
X136839500Y-110000000D01*
X142839500Y-104000000D02*
X136839500Y-110000000D01*
X154960000Y-104000000D02*
X142839500Y-104000000D01*
X208242000Y-118311200D02*
X206978800Y-117048000D01*
X214165200Y-118311200D02*
X208242000Y-118311200D01*
X215478800Y-116997600D02*
X214165200Y-118311200D01*
X192770600Y-118768200D02*
X191500000Y-117497600D01*
X205258600Y-118768200D02*
X192770600Y-118768200D01*
X206978800Y-117048000D02*
X205258600Y-118768200D01*
X183445000Y-111481600D02*
X182463400Y-110500000D01*
X186555000Y-111481600D02*
X183445000Y-111481600D01*
X187536600Y-110500000D02*
X186555000Y-111481600D01*
X188500000Y-110500000D02*
X187536600Y-110500000D01*
X181500000Y-110500000D02*
X182463400Y-110500000D01*
X181500000Y-110500000D02*
X180584000Y-110500000D01*
X157190000Y-106230000D02*
X154960000Y-104000000D01*
X164203300Y-106230000D02*
X157190000Y-106230000D01*
X168473300Y-110500000D02*
X164203300Y-106230000D01*
X180584000Y-110500000D02*
X168473300Y-110500000D01*
%TO.N,BAT1-*%
X175498000Y-113998000D02*
X176500000Y-115000000D01*
X156397300Y-116100300D02*
X155000000Y-117497600D01*
X175399700Y-116100300D02*
X156397300Y-116100300D01*
X176500000Y-115000000D02*
X175399700Y-116100300D01*
X153758500Y-116256100D02*
X155000000Y-117497600D01*
X134720300Y-116256100D02*
X153758500Y-116256100D01*
X133478800Y-117497600D02*
X134720300Y-116256100D01*
X212199400Y-97248800D02*
X182324700Y-97248800D01*
%TD*%
M02*
